<svg width="45" height="45" viewBox="0 0 45 45" fill="none" xmlns="http://www.w3.org/2000/svg">
<path d="M0 1.5C0 1.10218 0.158035 0.720644 0.43934 0.43934C0.720645 0.158035 1.10218 0 1.5 0H6C6.3346 9.24344e-05 6.65955 0.112052 6.9232 0.318074C7.18684 0.524096 7.37403 0.812352 7.455 1.137L8.67 6H43.5C43.7203 6.0002 43.9378 6.04891 44.1371 6.14265C44.3364 6.2364 44.5126 6.37288 44.6532 6.54241C44.7938 6.71194 44.8953 6.91035 44.9506 7.12355C45.0059 7.33675 45.0135 7.55951 44.973 7.776L40.473 31.776C40.4087 32.1197 40.2263 32.4302 39.9573 32.6537C39.6883 32.8772 39.3497 32.9997 39 33H12C11.6503 32.9997 11.3117 32.8772 11.0427 32.6537C10.7738 32.4302 10.5913 32.1197 10.527 31.776L6.03 7.821L4.83 3H1.5C1.10218 3 0.720645 2.84196 0.43934 2.56066C0.158035 2.27936 0 1.89782 0 1.5ZM9.306 9L13.245 30H37.755L41.694 9H9.306ZM15 33C13.4087 33 11.8826 33.6321 10.7574 34.7574C9.63214 35.8826 9 37.4087 9 39C9 40.5913 9.63214 42.1174 10.7574 43.2426C11.8826 44.3679 13.4087 45 15 45C16.5913 45 18.1174 44.3679 19.2426 43.2426C20.3679 42.1174 21 40.5913 21 39C21 37.4087 20.3679 35.8826 19.2426 34.7574C18.1174 33.6321 16.5913 33 15 33ZM36 33C34.4087 33 32.8826 33.6321 31.7574 34.7574C30.6322 35.8826 30 37.4087 30 39C30 40.5913 30.6322 42.1174 31.7574 43.2426C32.8826 44.3679 34.4087 45 36 45C37.5913 45 39.1174 44.3679 40.2427 43.2426C41.3679 42.1174 42 40.5913 42 39C42 37.4087 41.3679 35.8826 40.2427 34.7574C39.1174 33.6321 37.5913 33 36 33ZM15 36C15.7957 36 16.5587 36.3161 17.1213 36.8787C17.6839 37.4413 18 38.2044 18 39C18 39.7956 17.6839 40.5587 17.1213 41.1213C16.5587 41.6839 15.7957 42 15 42C14.2044 42 13.4413 41.6839 12.8787 41.1213C12.3161 40.5587 12 39.7956 12 39C12 38.2044 12.3161 37.4413 12.8787 36.8787C13.4413 36.3161 14.2044 36 15 36ZM36 36C36.7957 36 37.5587 36.3161 38.1213 36.8787C38.6839 37.4413 39 38.2044 39 39C39 39.7956 38.6839 40.5587 38.1213 41.1213C37.5587 41.6839 36.7957 42 36 42C35.2044 42 34.4413 41.6839 33.8787 41.1213C33.3161 40.5587 33 39.7956 33 39C33 38.2044 33.3161 37.4413 33.8787 36.8787C34.4413 36.3161 35.2044 36 36 36V36Z" fill="white"/>
</svg>
